<!DOCTYPE svg PUBLIC "-//W3C//DTD SVG 20010904//EN" "http://www.w3.org/TR/2001/REC-SVG-20010904/DTD/svg10.dtd">
<svg version="1.0" xmlns="http://www.w3.org/2000/svg" width="100px" height="57px" viewBox="0 0 100 57" preserveAspectRatio="xMidYMid meet">
 <g id="layer101" fill="#060606" stroke="none">
  <path d="M0 28.6765 l0 -28.6765 50 0 50 0 0 28.6765 0 28.6765 -50 0 -50 0 0 -28.6765z"/>
</g>
 <g id="layer102" fill="#d9d9d9" stroke="none">
  <path d="M45.2941 49.8529 c-2.3529 -1.3235 -2.6471 -3.9706 -2.6471 -21.9118 0 -21.0294 1.3235 -25.8824 5.4412 -19.5588 1.6176 2.5 2.9412 2.7941 7.5 2.0588 7.3529 -1.3235 15.7353 0.2941 20.5882 3.8235 5.4412 3.9706 11.9118 16.3235 13.0882 24.7059 1.0294 8.3824 -1.6176 8.2353 -3.2353 -0.2941 -1.7647 -9.4118 -6.7647 -18.0882 -12.7941 -22.0588 -5 -3.3824 -6.6176 -3.6765 -15 -3.0882 -5.8824 0.5882 -10.1471 0.1471 -11.0294 -0.7353 -1.1765 -1.1765 -1.6176 3.5294 -1.6176 16.3235 0 17.7941 0 17.9412 3.5294 18.8235 5.2941 1.3235 6.7647 -0.2941 6.7647 -7.6471 0 -5.5882 0.5882 -6.7647 3.8235 -8.2353 2.2059 -1.0294 3.9706 -3.3824 4.5588 -5.8824 1.1765 -5.8824 3.3824 -6.6176 3.3824 -1.3235 0 4.4118 -4.2647 10.4412 -7.3529 10.4412 -0.7353 0 -1.4706 2.7941 -1.4706 6.3235 0 3.5294 -0.7353 7.0588 -1.7647 8.0882 -2.2059 2.2059 -8.3824 2.2059 -11.7647 0.1471z"/>
  <path d="M8.3824 49.1176 c-0.5882 -0.5882 1.0294 -3.2353 3.3824 -6.0294 5.7353 -6.4706 6.1765 -13.6765 0.7353 -13.6765 -2.0588 0 -3.6765 -0.5882 -3.6765 -1.4706 0 -0.7353 1.4706 -1.4706 3.3824 -1.4706 2.9412 0 3.3824 -0.5882 2.7941 -5.1471 -1.3235 -10.8824 3.6765 -16.7647 12.3529 -14.5588 5.1471 1.3235 4.4118 3.6765 -0.8824 2.6471 -6.4706 -1.3235 -8.8235 1.3235 -8.8235 9.8529 l0 7.2059 5 0 c2.7941 0 5.5882 0.7353 6.0294 1.4706 0.5882 0.8824 -1.1765 1.4706 -4.2647 1.4706 -4.5588 0 -5.2941 0.4412 -5.2941 3.3824 0 1.7647 -1.3235 5.7353 -2.7941 8.8235 l-2.7941 5.4412 10.1471 0 c5.7353 0 10.1471 0.5882 10.1471 1.4706 0 1.6176 -23.8235 2.0588 -25.4412 0.5882z"/>
</g>

</svg>